<?xml version="1.0" standalone="no"?>
<!DOCTYPE svg PUBLIC "-//W3C//DTD SVG 20010904//EN"
 "http://www.w3.org/TR/2001/REC-SVG-20010904/DTD/svg10.dtd">
<svg version="1.0" xmlns="http://www.w3.org/2000/svg"
 width="652.000000pt" height="634.000000pt" viewBox="0 0 652.000000 634.000000"
 preserveAspectRatio="xMidYMid meet">

<g transform="translate(0.000000,634.000000) scale(0.100000,-0.100000)"
fill="#000000" stroke="none">
<path d="M3345 5869 c-14 -13 -145 -109 -150 -109 -2 0 -39 -24 -82 -52 -43
-29 -89 -58 -103 -65 -14 -7 -43 -24 -65 -37 -51 -32 -312 -161 -345 -171 -14
-4 -34 -14 -45 -21 -11 -8 -26 -14 -33 -14 -17 0 -84 -31 -79 -37 12 -12 364
148 495 226 29 17 55 31 57 31 8 0 268 171 307 202 21 16 42 27 48 23 6 -4 9
-1 8 7 -2 7 8 14 22 16 18 2 47 -14 100 -53 262 -197 611 -373 992 -500 126
-42 387 -115 410 -115 27 0 -7 14 -74 31 -175 45 -420 120 -483 148 -11 5 -36
15 -55 21 -19 7 -55 21 -80 32 -25 11 -54 23 -65 28 -58 23 -253 121 -340 171
-103 58 -224 138 -319 209 -52 40 -99 51 -121 29z"/>
<path d="M3370 5820 c-9 -6 -10 -10 -3 -10 6 0 15 5 18 10 8 12 4 12 -15 0z"/>
<path d="M3338 5668 c12 -14 6 -21 -47 -57 -450 -306 -1005 -521 -1626 -631
-165 -29 -399 -60 -462 -60 l-52 0 -8 -47 c-13 -79 -10 -941 5 -1088 55 -564
122 -890 258 -1257 24 -65 41 -126 38 -135 -5 -14 -4 -15 4 -4 8 11 11 9 17
-10 13 -40 75 -166 139 -283 144 -260 320 -482 597 -750 88 -85 156 -156 152
-158 -5 -3 -2 -3 5 -2 7 2 52 -29 100 -69 229 -190 579 -425 832 -559 l105
-55 120 66 c180 99 370 217 499 309 25 18 51 30 58 26 6 -4 8 -3 5 3 -4 6 42
47 101 91 59 44 147 115 195 156 50 44 93 74 99 70 6 -4 8 -3 5 3 -8 13 80 96
93 88 6 -4 7 1 3 11 -5 14 -3 16 11 11 9 -4 15 -3 12 1 -7 12 129 144 139 135
4 -4 5 -2 1 5 -5 9 11 33 46 70 29 31 87 98 127 149 41 51 79 89 84 86 6 -3 7
-1 4 4 -4 6 26 61 67 121 198 296 358 676 455 1082 102 424 139 854 127 1485
-3 193 -10 370 -14 395 -7 45 -7 45 -52 48 -25 2 -135 17 -245 33 -735 111
-1340 323 -1818 635 -89 58 -97 66 -85 82 12 15 11 16 -4 3 -13 -10 -21 -11
-31 -2 -10 8 -17 7 -25 -1 -8 -8 -16 -8 -29 3 -16 13 -17 12 -5 -3z m222 -717
c137 -26 238 -53 352 -95 145 -53 178 -68 173 -77 -3 -4 0 -11 6 -15 8 -4 9
-3 5 4 -10 17 -1 15 47 -9 149 -75 321 -219 417 -349 47 -63 119 -193 120
-215 0 -5 30 -25 66 -44 127 -66 235 -192 290 -337 27 -73 54 -213 54 -285 0
-30 6 -53 16 -63 29 -29 85 -130 100 -181 40 -136 37 -328 -7 -471 -42 -136
-150 -275 -266 -343 -52 -31 -62 -42 -95 -110 -71 -146 -232 -282 -403 -341
-125 -43 -300 -43 -439 1 -33 10 -63 16 -68 13 -4 -3 -8 -143 -8 -312 0 -182
-4 -322 -11 -344 -11 -40 -53 -97 -64 -87 -3 4 6 20 20 37 14 16 25 33 25 37
0 4 -13 -9 -30 -30 -16 -20 -27 -41 -25 -46 10 -15 -38 -32 -91 -31 -105 1
-144 41 -208 219 -54 149 -54 148 -142 363 -100 246 -151 343 -239 458 -31 39
-45 51 -60 47 -11 -3 -47 -13 -80 -23 -43 -12 -94 -16 -180 -16 -104 1 -131 5
-205 30 -198 66 -358 227 -431 432 l-27 77 -48 7 c-146 22 -293 75 -278 99 4
8 3 9 -5 5 -21 -13 -143 97 -213 192 -50 67 -102 177 -94 198 3 8 2 12 -4 9
-5 -3 -14 13 -20 35 -5 22 -15 59 -22 83 -20 72 -14 289 11 382 58 219 192
383 358 441 40 14 55 25 64 47 43 104 234 302 384 398 159 102 398 163 554
140 60 -9 66 -8 116 20 140 79 340 96 585 50z"/>
<path d="M3153 4840 c-65 -17 -94 -31 -192 -92 -22 -14 -34 -16 -62 -8 -52 15
-192 12 -271 -6 -234 -53 -460 -220 -576 -424 -17 -30 -34 -53 -38 -52 -3 2
-9 0 -12 -4 -4 -4 -1 -4 6 0 15 9 15 4 1 -28 -9 -18 -22 -27 -51 -31 -147 -25
-267 -149 -321 -332 l-16 -53 192 0 193 0 17 29 c52 88 193 105 278 34 60 -51
87 -152 57 -217 -10 -24 -6 -31 63 -108 120 -135 130 -145 142 -161 10 -13 58
-16 285 -22 248 -7 272 -6 272 9 0 26 78 104 117 117 90 29 203 -13 243 -91
l20 -40 63 0 63 0 54 55 c54 55 77 69 66 39 -3 -9 -2 -12 5 -9 6 4 8 14 4 22
-6 16 108 144 150 170 13 8 72 12 176 13 l157 0 4 69 c3 59 8 76 34 108 53 66
146 97 218 73 146 -48 184 -252 63 -344 -48 -37 -114 -52 -168 -38 -38 10 -45
9 -53 -6 -5 -9 -37 -57 -71 -107 -184 -269 -257 -378 -262 -391 -4 -12 33 -14
236 -14 l241 0 19 38 c55 108 164 150 266 103 150 -69 152 -280 3 -357 -42
-22 -126 -21 -173 2 -21 10 -52 37 -69 62 l-31 44 -292 -8 -291 -7 -26 26
c-19 19 -26 36 -26 65 0 41 -4 35 238 393 62 91 112 168 112 172 0 4 -55 7
-123 7 l-123 0 -103 -105 c-57 -57 -107 -102 -111 -100 -4 3 -7 -3 -6 -12 0
-9 -5 -18 -13 -21 -9 -3 -11 0 -6 8 6 9 4 11 -4 6 -7 -5 -10 -11 -7 -14 4 -3
-4 -16 -16 -29 -19 -21 -30 -23 -110 -23 -83 0 -89 -1 -97 -23 -15 -38 -61
-86 -102 -107 -42 -22 -112 -26 -156 -9 -38 14 -92 67 -108 107 l-14 32 -276
0 c-223 0 -281 3 -304 15 -16 8 -66 58 -112 112 -147 173 -153 179 -184 165
-87 -40 -216 25 -241 122 l-6 26 -189 0 -189 0 0 -75 c0 -200 71 -360 219
-496 78 -72 159 -112 262 -128 35 -6 205 -11 377 -11 l313 0 25 29 c78 93 235
79 305 -29 l32 -49 228 -3 228 -3 58 -57 c32 -32 74 -78 93 -102 33 -43 38
-45 86 -46 87 0 146 -36 184 -110 18 -35 21 -56 18 -111 -3 -58 -8 -73 -35
-106 -22 -27 -38 -37 -54 -35 -17 1 -20 -1 -11 -7 11 -7 11 -9 -2 -14 -13 -5
-16 -22 -16 -80 l0 -74 38 -16 c166 -73 363 -71 519 5 122 59 238 198 286 340
3 10 37 33 74 52 88 44 160 115 204 202 54 104 64 152 63 299 0 156 -18 216
-92 309 l-47 61 -7 110 c-7 128 -26 205 -70 294 -45 88 -114 156 -201 196 -40
18 -79 41 -88 51 -9 11 -42 70 -74 132 -49 94 -73 128 -144 201 -137 140 -282
226 -537 316 l-121 43 -202 -202 -201 -201 -2 -250 c-2 -288 -14 -261 116
-250 l81 6 123 118 c119 113 123 118 113 145 -20 50 -13 125 14 172 33 56 81
85 153 91 72 6 134 -23 175 -83 24 -35 29 -51 28 -104 0 -54 -5 -71 -28 -104
-42 -61 -102 -88 -185 -84 l-66 3 -118 -110 c-64 -60 -121 -109 -126 -107 -5
1 -7 -2 -4 -7 4 -5 -6 -19 -20 -30 -25 -20 -39 -21 -281 -21 l-254 0 -49 51
c-27 29 -47 57 -43 63 3 6 3 8 -2 4 -7 -7 -30 17 -99 105 -27 34 -34 37 -78
37 -124 0 -215 95 -201 210 14 113 159 197 267 156 52 -20 111 -78 102 -101
-3 -9 -2 -14 3 -11 27 17 28 -94 1 -153 l-20 -43 32 -42 c18 -22 55 -67 82
-98 l49 -58 58 0 59 0 0 267 0 267 200 201 201 202 -53 11 c-70 16 -210 32
-273 31 -27 0 -83 -9 -122 -19z"/>
<path d="M2374 4764 c-18 -14 -18 -15 4 -4 12 6 22 13 22 15 0 8 -5 6 -26 -11z"/>
<path d="M4325 4611 c-3 -5 -2 -12 3 -15 5 -3 9 1 9 9 0 17 -3 19 -12 6z"/>
<path d="M2760 4330 c8 -5 20 -10 25 -10 6 0 3 5 -5 10 -8 5 -19 10 -25 10 -5
0 -3 -5 5 -10z"/>
<path d="M3970 4316 c0 -2 7 -7 16 -10 8 -3 12 -2 9 4 -6 10 -25 14 -25 6z"/>
<path d="M3895 4300 c-42 -16 -59 -61 -44 -114 10 -36 28 -46 87 -46 61 0 96
63 67 119 -22 44 -65 60 -110 41z"/>
<path d="M2705 4265 c-27 -26 -32 -60 -14 -99 29 -63 142 -48 155 20 16 84
-82 139 -141 79z"/>
<path d="M3818 4083 c7 -3 16 -2 19 1 4 3 -2 6 -13 5 -11 0 -14 -3 -6 -6z"/>
<path d="M2124 3786 c-57 -49 -19 -146 57 -146 41 0 79 39 79 82 -1 76 -80
113 -136 64z"/>
<path d="M4375 3775 c-19 -18 -25 -35 -25 -65 0 -86 90 -121 152 -60 26 27 30
36 25 67 -13 79 -99 112 -152 58z"/>
<path d="M3078 3773 c7 -3 16 -2 19 1 4 3 -2 6 -13 5 -11 0 -14 -3 -6 -6z"/>
<path d="M3433 3773 c9 -2 25 -2 35 0 9 3 1 5 -18 5 -19 0 -27 -2 -17 -5z"/>
<path d="M4330 3656 c0 -2 8 -10 18 -17 15 -13 16 -12 3 4 -13 16 -21 21 -21
13z"/>
<path d="M5005 3410 c10 -11 20 -20 23 -20 3 0 -3 9 -13 20 -10 11 -20 20 -23
20 -3 0 3 -9 13 -20z"/>
<path d="M3247 3377 c-32 -25 -47 -90 -28 -125 17 -32 68 -55 104 -48 50 10
77 43 77 94 0 86 -88 132 -153 79z"/>
<path d="M3680 3290 c-9 -6 -10 -10 -3 -10 6 0 15 5 18 10 8 12 4 12 -15 0z"/>
<path d="M3460 3249 c0 -5 5 -7 10 -4 6 3 10 8 10 11 0 2 -4 4 -10 4 -5 0 -10
-5 -10 -11z"/>
<path d="M4056 3233 c-6 -14 -5 -15 5 -6 7 7 10 15 7 18 -3 3 -9 -2 -12 -12z"/>
<path d="M3365 3190 c-3 -6 1 -7 9 -4 18 7 21 14 7 14 -6 0 -13 -4 -16 -10z"/>
<path d="M4801 3073 c-1 -6 -4 -20 -7 -30 -5 -17 -5 -17 6 0 6 10 9 23 6 30
-3 9 -5 9 -5 0z"/>
<path d="M4641 3046 c-44 -24 -63 -84 -41 -127 16 -30 67 -51 103 -43 70 15
91 101 38 155 -32 31 -62 36 -100 15z"/>
<path d="M4760 3041 c0 -6 4 -13 10 -16 6 -3 7 1 4 9 -7 18 -14 21 -14 7z"/>
<path d="M2879 2941 c-21 -22 -29 -39 -29 -66 0 -81 102 -127 154 -70 86 93
-36 225 -125 136z"/>
<path d="M2300 2853 c0 -13 34 -96 59 -143 13 -25 54 -76 92 -113 81 -81 173
-128 303 -153 104 -21 204 -11 324 29 l72 25 60 -66 c33 -37 58 -73 55 -80 -3
-7 -1 -11 4 -8 29 18 188 -304 291 -589 136 -377 139 -385 186 -385 17 0 36 6
41 13 12 14 27 834 17 896 -5 30 -12 41 -29 45 -32 8 -88 63 -79 77 4 7 3 9
-4 5 -6 -3 -17 12 -27 39 -20 52 -17 112 10 168 20 43 19 46 -67 139 l-53 57
-205 2 c-242 2 -230 3 -230 -16 0 -8 -16 -33 -36 -55 -45 -50 -110 -72 -175
-59 -24 4 -47 8 -51 9 -4 0 -23 14 -43 31 -36 32 -65 85 -65 120 0 18 -12 19
-225 19 -124 0 -225 -3 -225 -7z"/>
<path d="M3685 2610 c-3 -5 -2 -10 4 -10 5 0 13 5 16 10 3 6 2 10 -4 10 -5 0
-13 -4 -16 -10z"/>
<path d="M3814 2605 c-60 -25 -77 -82 -42 -135 21 -31 30 -35 71 -38 39 -3 51
1 72 22 29 29 33 72 10 116 -9 17 -17 30 -18 30 -1 0 -16 4 -33 9 -20 6 -40 5
-60 -4z"/>
<path d="M2445 2477 c-15 -12 -16 -15 -4 -22 8 -5 11 -5 7 0 -4 4 0 14 10 21
23 18 11 18 -13 1z"/>
<path d="M3416 2033 c-6 -14 -5 -15 5 -6 7 7 10 15 7 18 -3 3 -9 -2 -12 -12z"/>
<path d="M3840 5560 c8 -5 20 -10 25 -10 6 0 3 5 -5 10 -8 5 -19 10 -25 10 -5
0 -3 -5 5 -10z"/>
<path d="M2381 5349 c-13 -5 -22 -12 -19 -15 3 -3 21 2 39 10 37 16 19 21 -20
5z"/>
<path d="M2290 5316 c-49 -17 -87 -35 -76 -35 10 -1 128 39 135 45 8 8 -25 2
-59 -10z"/>
<path d="M2126 5264 c-26 -9 -46 -17 -44 -20 3 -2 31 4 64 15 32 10 52 19 44
19 -8 0 -37 -6 -64 -14z"/>
<path d="M1980 5224 c-30 -7 -91 -21 -135 -30 -101 -21 -116 -26 -95 -31 8 -1
85 15 170 36 85 21 146 39 135 39 -11 0 -45 -6 -75 -14z"/>
<path d="M4900 5197 c7 -8 162 -38 167 -33 3 3 -12 9 -33 15 -50 13 -140 25
-134 18z"/>
<path d="M1602 5145 c-39 -6 -75 -15 -79 -18 -10 -11 25 -7 122 12 101 21 70
25 -43 6z"/>
<path d="M5081 5156 c2 -2 87 -18 189 -35 196 -32 360 -48 325 -32 -11 5 -42
10 -70 11 -48 1 -124 12 -320 44 -93 15 -131 19 -124 12z"/>
<path d="M1350 5109 c-47 -5 -110 -13 -141 -19 -30 -5 -77 -11 -105 -11 -27
-1 -62 -5 -79 -10 -57 -16 337 21 440 41 l40 8 -35 0 c-19 -1 -73 -5 -120 -9z"/>
<path d="M5645 5074 c17 -2 54 -7 83 -10 42 -4 55 -10 62 -27 5 -13 9 -16 9
-7 1 34 -16 42 -100 45 -46 2 -70 2 -54 -1z"/>
<path d="M976 5038 c-3 -13 -5 -68 -4 -123 l2 -100 6 120 c3 66 5 121 4 123
-1 1 -4 -8 -8 -20z"/>
<path d="M5805 4399 c0 -254 3 -444 7 -423 9 49 8 831 0 862 -4 13 -7 -185 -7
-439z"/>
<path d="M964 4495 c0 -121 2 -169 3 -107 2 62 2 161 0 220 -1 59 -3 8 -3
-113z"/>
<path d="M971 4054 c1 -82 5 -178 9 -214 4 -36 5 30 2 145 -3 116 -6 212 -8
214 -2 2 -3 -63 -3 -145z"/>
<path d="M5787 3740 c-5 -68 -15 -176 -23 -239 -16 -133 -17 -141 -5 -121 11
18 44 401 39 450 -2 19 -7 -21 -11 -90z"/>
<path d="M990 3684 c0 -43 5 -86 10 -94 7 -10 8 13 4 75 -4 50 -8 92 -10 94
-2 2 -4 -31 -4 -75z"/>
<path d="M1151 3554 c0 -11 3 -14 6 -6 3 7 2 16 -1 19 -3 4 -6 -2 -5 -13z"/>
<path d="M1012 3520 c0 -19 2 -27 5 -17 2 9 2 25 0 35 -3 9 -5 1 -5 -18z"/>
<path d="M1021 3462 c-2 -41 21 -216 30 -232 7 -13 8 -13 8 0 0 30 -37 254
-38 232z"/>
<path d="M5735 3295 c-3 -31 -4 -59 -2 -62 3 -2 9 21 12 52 4 31 5 58 2 61 -2
3 -8 -20 -12 -51z"/>
<path d="M5722 3209 c-1 -9 -5 -32 -8 -50 -4 -28 -3 -31 6 -16 6 9 9 32 7 50
-2 17 -5 25 -5 16z"/>
<path d="M1061 3190 c0 -58 95 -465 127 -541 6 -15 16 -46 22 -70 6 -24 15
-53 20 -64 5 -11 21 -51 36 -90 58 -152 178 -394 206 -420 6 -5 1 8 -11 29
-12 21 -20 45 -17 53 3 8 1 11 -4 8 -5 -3 -32 43 -61 102 -127 268 -232 592
-299 928 -10 50 -18 79 -19 65z"/>
<path d="M5686 3029 c-10 -51 -21 -102 -23 -113 -4 -17 -2 -18 6 -6 11 18 44
186 39 201 -2 6 -12 -31 -22 -82z"/>
<path d="M5635 2823 c-58 -217 -210 -605 -227 -581 -7 9 -8 8 -4 -6 11 -34
-141 -312 -258 -472 -34 -45 -68 -93 -76 -105 -34 -52 -167 -204 -177 -204 -6
0 -15 -4 -20 -9 -5 -5 -3 -6 5 -2 25 15 11 -11 -26 -47 -21 -21 -42 -34 -47
-30 -4 5 -5 2 -1 -5 9 -16 -60 -85 -76 -76 -7 5 -8 2 -3 -6 5 -8 -5 -23 -27
-44 -20 -17 -69 -61 -109 -98 -41 -37 -94 -85 -119 -107 -26 -24 -51 -39 -60
-35 -8 3 -11 2 -7 -2 4 -4 0 -16 -10 -26 -18 -20 -38 -25 -27 -6 4 7 3 8 -5 4
-6 -4 -9 -11 -6 -16 9 -14 -79 -80 -325 -246 -149 -101 -183 -126 -140 -104
27 14 102 62 110 70 3 3 37 26 75 52 167 111 244 169 391 293 168 141 184 155
320 295 165 169 363 419 453 571 88 148 221 396 221 412 0 3 11 30 24 59 13
29 27 64 31 78 4 14 11 30 15 35 16 23 112 323 125 393 11 56 -1 35 -20 -35z"/>
<path d="M1480 1981 c0 -4 8 -19 18 -32 10 -13 37 -55 61 -94 59 -97 165 -244
232 -320 15 -16 58 -66 96 -110 113 -129 315 -324 438 -421 28 -21 52 -42 55
-45 5 -6 191 -149 240 -184 217 -156 643 -413 721 -435 63 -18 53 -10 -50 40
-56 27 -100 54 -96 59 3 5 0 13 -6 17 -8 4 -9 3 -5 -4 14 -23 -10 -12 -129 59
-237 140 -600 392 -590 409 3 4 -3 14 -13 21 -16 13 -16 13 -2 -5 8 -11 10
-17 4 -15 -42 15 -484 410 -484 432 0 4 5 5 12 1 7 -4 8 -3 4 4 -4 6 -12 9
-19 7 -34 -11 -450 535 -431 566 4 8 3 9 -4 5 -6 -4 -18 6 -27 24 -15 30 -25
38 -25 21z"/>
<path d="M2560 1006 c0 -3 9 -10 20 -16 11 -6 20 -8 20 -6 0 3 -9 10 -20 16
-11 6 -20 8 -20 6z"/>
<path d="M3775 539 c-44 -27 -85 -47 -91 -45 -6 2 -11 -2 -11 -9 0 -18 28 -7
97 39 30 20 63 39 72 42 10 3 18 10 18 15 0 12 7 15 -85 -42z"/>
<path d="M3628 454 c-16 -8 -28 -17 -28 -19 0 -11 19 -4 41 15 29 23 24 25
-13 4z"/>
<path d="M3500 384 c-47 -25 -74 -42 -60 -39 38 11 150 68 150 77 0 10 8 14
-90 -38z"/>
</g>
</svg>
